<svg width="70" height="70" viewBox="0 0 70 70" fill="none" xmlns="http://www.w3.org/2000/svg">
<circle cx="35" cy="35" r="35" fill="#DCFAF8"/>
<g clip-path="url(#clip0_126_76)">
<path d="M47.9816 34.3653H46.1973C45.7912 33.2291 45.1367 32.2118 44.299 31.3801L47.0508 30.1654C47.4439 29.9918 47.6592 29.5581 47.5474 29.1433C47.2155 27.9118 46.0954 27.0059 44.7647 27.0059H42.495C41.1899 27.0059 40.0879 27.8776 39.7328 29.0729H37.3358C36.4355 32.3986 33.3944 34.8522 29.7911 34.8522C27.5916 34.8522 25.6017 33.9377 24.1801 32.469C23.7797 33.0403 23.4518 33.6664 23.2101 34.3342C22.4921 34.1771 21.9018 33.6092 21.7368 32.8697C21.631 32.3959 21.161 32.0972 20.6875 32.2033C20.2138 32.3091 19.9154 32.7788 20.0212 33.2526C20.2009 34.0581 20.6534 34.7894 21.295 35.3118C21.7342 35.6693 22.2506 35.9182 22.7977 36.043C22.7551 36.378 22.7331 36.7195 22.7331 37.066V37.9182C22.7331 41.1482 24.6401 43.9303 27.3845 45.191V47.1279C27.3845 48.182 28.239 49.0366 29.2932 49.0366C30.3474 49.0366 31.202 48.182 31.202 47.1279V45.9113H38.3523V47.1279C38.3523 48.182 39.2069 49.0366 40.2611 49.0366C41.3152 49.0366 42.1698 48.182 42.1698 47.1279V45.1165C44.1764 44.1404 45.7131 42.3424 46.3466 40.1577H47.9815C49.0963 40.1577 50 39.2498 50 38.1298V36.3931C50.0001 35.2732 49.0964 34.3653 47.9816 34.3653ZM41.4963 34.8727C41.0126 34.8727 40.6205 34.4807 40.6205 33.997C40.6205 33.5133 41.0126 33.1213 41.4963 33.1213C41.98 33.1213 42.372 33.5133 42.372 33.997C42.372 34.4807 41.98 34.8727 41.4963 34.8727Z" fill="#16DBCC"/>
<path d="M29.7914 20.9634C26.4509 20.9634 23.7333 23.6844 23.7333 27.0289C23.7333 30.3734 26.4509 33.0944 29.7914 33.0944C33.1318 33.0944 35.8494 30.3734 35.8494 27.0289C35.8494 23.6842 33.1317 20.9634 29.7914 20.9634ZM29.2288 26.1021H30.3539C31.6231 26.1021 32.6556 27.1353 32.6556 28.4053C32.6556 29.5678 31.7902 30.5314 30.6703 30.6862V31.0163C30.6703 31.5017 30.2768 31.8953 29.7914 31.8953C29.306 31.8953 28.9125 31.5017 28.9125 31.0163V30.7085H28.6882C27.7172 30.7085 26.9271 29.9181 26.9271 28.9465C26.9271 28.4611 27.3206 28.0675 27.806 28.0675C28.2914 28.0675 28.6849 28.4611 28.6849 28.9465L30.3539 28.9507C30.6538 28.9507 30.8977 28.706 30.8977 28.4053C30.8977 28.1046 30.6538 27.8599 30.3539 27.8599H29.2288C27.9596 27.8599 26.9271 26.8267 26.9271 25.5567C26.9271 24.3941 27.7925 23.4305 28.9125 23.2757V23.0414C28.9125 22.556 29.306 22.1625 29.7914 22.1625C30.2768 22.1625 30.6703 22.556 30.6703 23.0414V23.2534H30.8945C31.8655 23.2534 32.6556 24.0439 32.6556 25.0155C32.6556 25.5009 32.262 25.8944 31.7767 25.8944C31.2913 25.8944 30.8977 25.5009 30.8977 25.0155C30.8977 25.0141 30.8976 25.0135 30.8976 25.0135L29.2288 25.0112C28.9289 25.0112 28.685 25.2559 28.685 25.5567C28.685 25.8574 28.9289 26.1021 29.2288 26.1021Z" fill="#16DBCC"/>
</g>
<defs>
<clipPath id="clip0_126_76">
<rect width="30" height="30" fill="white" transform="translate(20 20)"/>
</clipPath>
</defs>
</svg>
