<svg class='invoice-icon' viewBox="0 0 60 60" fill="none" xmlns="http://www.w3.org/2000/svg">
<rect width="60" height="60" rx="20" fill="#DCFAF8"/>
<g clip-path="url(#clip0_101_281)">
<path d="M40.0478 35.2021C39.2664 34.733 37.6411 33.7564 37.6411 31.216C37.6411 29.0719 39.076 27.9898 39.8467 27.4086L39.8628 27.3964C40.1722 27.1631 40.2459 26.7287 40.0312 26.4061C38.3093 23.8207 35.352 23.7461 34.7771 23.7568H34.7737C34.3793 23.7573 34.003 23.8027 33.6462 23.8744C33.778 23.769 33.9059 23.6567 34.0289 23.5377C35.2608 22.3458 35.9377 20.5873 35.8855 18.7116C35.8743 18.3158 35.5502 18 35.1539 18C33.8214 18 32.3065 18.796 31.2 20.0777C30.0853 21.3692 29.5645 22.9163 29.7719 24.322C29.789 24.4386 29.8339 24.545 29.8983 24.6363C29.7031 24.5709 29.4966 24.4948 29.2926 24.4196C28.5176 24.1341 27.6385 23.8105 26.8157 23.8105C26.7991 23.8105 25.126 23.8227 23.4553 24.8603C21.994 25.7686 20.2516 27.6589 20.2516 31.5093C20.2516 33.5119 21.034 36.3154 22.2449 38.6523C23.0814 40.2668 24.8175 42.9766 27.047 42.9893H27.0709C28.6967 42.9893 30.0438 42.0292 30.9599 42.0292C32.5246 42.0292 33.0815 43 34.7737 43C36.2906 43 37.7607 41.8477 39.1434 39.5757C39.651 38.7411 40.0458 37.9158 40.2874 37.3701C40.7486 36.3305 40.7486 36.1919 40.7486 36.0904C40.7486 35.6233 40.3923 35.409 40.0478 35.2021ZM32.3084 21.0343C32.9092 20.3384 33.6662 19.822 34.3832 19.594C34.2461 20.7308 33.7658 21.7552 33.0108 22.4854C32.4817 22.9974 31.8467 23.3302 31.202 23.4449C31.2703 22.6406 31.6549 21.7913 32.3084 21.0343ZM37.8217 38.9295C36.7767 40.6104 35.6942 41.5358 34.7737 41.5358C33.5071 41.5358 32.9151 40.565 30.9599 40.565C29.6406 40.565 28.3819 41.5319 27.0553 41.525C26.0206 41.5192 24.6755 40.1604 23.5451 37.9787C22.4338 35.8346 21.7158 33.2952 21.7158 31.5093C21.7158 28.9811 22.547 27.1718 24.185 26.1313C25.4603 25.3216 26.7649 25.2762 26.8201 25.2747C27.9631 25.2776 29.5498 26.2894 30.7061 26.2894C31.7471 26.2894 33.1411 25.221 34.779 25.221H34.8059C35.2032 25.2132 37.0788 25.2576 38.3966 26.6877C37.4654 27.472 36.1769 28.8825 36.1769 31.216C36.1769 34.3855 38.1814 35.777 39.1282 36.3573C38.8925 36.9284 38.443 37.9304 37.8217 38.9295Z" fill="#16DBCC"/>
</g>
<defs>
<clipPath id="clip0_101_281">
<rect width="25" height="25" fill="white" transform="translate(18 18)"/>
</clipPath>
</defs>
</svg>
