<svg width="20" height="20" viewBox="0 0 20 20" fill="none" xmlns="http://www.w3.org/2000/svg">
<path fill-rule="evenodd" clip-rule="evenodd" d="M10 18.6667C14.7865 18.6667 18.6667 14.7865 18.6667 10C18.6667 5.21353 14.7865 1.33333 10 1.33333C5.21353 1.33333 1.33333 5.21353 1.33333 10C1.33333 14.7865 5.21353 18.6667 10 18.6667ZM10 20C15.5228 20 20 15.5228 20 10C20 4.47715 15.5228 0 10 0C4.47715 0 0 4.47715 0 10C0 15.5228 4.47715 20 10 20Z" fill="#718EBF"/>
<path fill-rule="evenodd" clip-rule="evenodd" d="M13.5355 11.1718L10.3535 14.3538C10.1583 14.5491 9.8417 14.5491 9.64644 14.3538L6.46446 11.1718C6.2692 10.9766 6.2692 10.66 6.46446 10.4647C6.65972 10.2694 6.97631 10.2694 7.17157 10.4647L9.5 12.7931L9.5 7.00024L10.5 7.00024L10.5 12.7931L12.8284 10.4647C13.0237 10.2694 13.3403 10.2694 13.5355 10.4647C13.7308 10.66 13.7308 10.9766 13.5355 11.1718Z" fill="#718EBF"/>
</svg>
