<svg class='icon-icon' viewBox="0 0 25 25" fill="none" xmlns="http://www.w3.org/2000/svg">
<g clip-path="url(#clip0_101_311)">
<path d="M20.2995 13.265C19.8339 13.265 19.3737 13.3332 18.9316 13.4675L13.2316 15.0454V6.98364C13.2316 6.57978 13.5602 6.25122 13.964 6.25122C14.3679 6.25122 14.6965 6.57978 14.6965 6.98364V12.6813H15.4289C18.2559 12.6813 20.5558 10.3813 20.5558 7.55435C20.5558 5.2667 19.0193 3.23696 16.8162 2.61753L7.35598 0V12.556L3.56003 13.6067C3.11179 13.7189 2.6821 13.8971 2.28274 14.1366C0.0602257 15.4691 -0.663798 18.3615 0.668819 20.584C1.1966 21.4642 1.97683 22.1334 2.92517 22.5193C3.4905 22.7494 4.09943 22.8661 4.70754 22.866C5.08513 22.866 5.46247 22.821 5.82868 22.7303L7.35598 22.3077V23.5762L12.4992 25L21.6585 22.4646L21.6776 22.459C22.6193 22.1705 23.4651 21.576 24.0593 20.7849C24.6742 19.9663 24.9992 18.9911 24.9992 17.9648C24.9992 15.3733 22.8909 13.265 20.2995 13.265ZM7.35593 16.6719L3.50417 17.7381L3.89499 19.1499L7.35593 18.1918V20.7878L5.46706 21.3107C5.20759 21.3742 4.94685 21.405 4.68947 21.405C3.57331 21.4049 2.52194 20.8262 1.92512 19.8307C1.00788 18.3009 1.50622 16.3101 3.03601 15.3928C3.31355 15.2264 3.61179 15.103 3.92243 15.026L7.35593 14.0758V16.6719ZM11.7668 6.98364V23.2773L8.82082 22.4618V1.9252L16.4227 4.02856C17.9938 4.47031 19.091 5.92022 19.091 7.55439C19.091 9.3229 17.8307 10.8026 16.1613 11.1429V6.98364C16.1613 5.77207 15.1756 4.78638 13.964 4.78638C12.7525 4.78638 11.7668 5.77207 11.7668 6.98364ZM21.2574 21.0556L13.2316 23.2773V20.6813L21.4947 18.3938L21.1039 16.9821L13.2316 19.1613V16.5653L19.3315 14.8767L19.3506 14.8711C19.6567 14.7774 19.9759 14.7299 20.2995 14.7299C22.0832 14.7299 23.5344 16.1811 23.5344 17.9647C23.5343 19.3931 22.6196 20.6341 21.2574 21.0556Z" fill="#396AFF"/>
</g>
<defs>
<clipPath id="clip0_101_311">
<rect width="25" height="25" fill="white"/>
</clipPath>
</defs>
</svg>
